<svg width="44" height="22" viewBox="0 0 44 22" fill="none" xmlns="http://www.w3.org/2000/svg">
<path d="M0.998047 2.00024V10.5002C0.998047 11.6048 1.89348 12.5002 2.99805 12.5002H9.99805C11.1026 12.5002 11.998 13.3957 11.998 14.5002V19.5002C11.998 20.6048 12.8935 21.5002 13.998 21.5002H31.498C32.6026 21.5002 33.498 20.6048 33.498 19.5002V14.5002C33.498 13.3957 34.3935 12.5002 35.498 12.5002H41.998C43.1026 12.5002 43.998 11.6048 43.998 10.5002V2.00024C43.998 0.895675 43.1026 0.000244141 41.998 0.000244141H35.498C34.3935 0.000244141 33.498 0.895675 33.498 2.00024V9.00024C33.498 10.1048 32.6026 11.0002 31.498 11.0002H13.998C12.8935 11.0002 11.998 10.1048 11.998 9.00024V2.00024C11.998 0.895675 11.1026 0.000244141 9.99805 0.000244141H2.99805C1.89348 0.000244141 0.998047 0.895675 0.998047 2.00024Z" fill="#A4FD08"/>
</svg>
